<svg width="512" height="512" viewBox="0 0 512 512" fill="none" xmlns="http://www.w3.org/2000/svg">
<g clip-path="url(#clip0_1_2)">
<path d="M388.816 169.245C384.926 165.325 378.595 165.299 374.674 169.188C370.754 173.078 370.728 179.41 374.618 183.331L374.678 183.393C376.625 185.356 379.177 186.334 381.732 186.334C384.28 186.334 386.832 185.36 388.79 183.418C392.711 179.528 392.706 173.166 388.816 169.245Z" fill="#303030"/>
<path d="M509.071 289.501L416.193 196.623C412.288 192.719 405.956 192.719 402.05 196.623C398.145 200.528 398.145 206.86 402.05 210.766L475.782 284.497H299.957C285.371 284.497 273.506 272.631 273.506 258.046V82.222L344.689 153.404C348.594 157.308 354.926 157.308 358.832 153.404C362.737 149.499 362.737 143.167 358.832 139.261L268.502 48.932C264.597 45.028 258.265 45.028 254.36 48.932L94.94 208.355C91.035 212.26 91.035 218.592 94.94 222.498L335.509 463.066C337.384 464.941 339.928 465.995 342.58 465.995C345.232 465.995 347.776 464.941 349.651 463.066L509.072 303.644C510.947 301.768 512.001 299.225 512.001 296.573C512 293.921 510.946 291.377 509.071 289.501ZM253.508 78.071V205.427H126.152L253.508 78.071ZM332.58 431.852L126.152 225.426H253.508V258.046C253.508 283.659 274.346 304.497 299.959 304.497H332.58V431.852ZM352.579 431.853V304.497H479.934L352.579 431.853Z" fill="#303030"/>
<path d="M68.631 253.999H10C4.477 253.999 0 258.477 0 263.999C0 269.521 4.477 273.999 10 273.999H68.631C74.154 273.999 78.631 269.522 78.631 263.999C78.631 258.477 74.154 253.999 68.631 253.999Z" fill="#303030"/>
<path d="M98.446 253.999H98.296C92.773 253.999 88.296 258.477 88.296 263.999C88.296 269.521 92.773 273.999 98.296 273.999H98.446C103.969 273.999 108.446 269.521 108.446 263.999C108.446 258.477 103.969 253.999 98.446 253.999Z" fill="#303030"/>
<path d="M42.016 149.002H10.013C4.49 149.002 0.0130005 153.48 0.0130005 159.002C0.0130005 164.524 4.49 169.002 10.013 169.002H42.016C47.539 169.002 52.016 164.524 52.016 159.002C52.016 153.48 47.539 149.002 42.016 149.002Z" fill="#303030"/>
<path d="M112.51 149.002H74.682C69.159 149.002 64.682 153.48 64.682 159.002C64.682 164.524 69.159 169.002 74.682 169.002H112.51C118.033 169.002 122.51 164.524 122.51 159.002C122.51 153.48 118.033 149.002 112.51 149.002Z" fill="#303030"/>
<path d="M134.282 308.998H78.283C72.76 308.998 68.283 313.476 68.283 318.998C68.283 324.52 72.76 328.998 78.283 328.998H134.282C139.805 328.998 144.282 324.52 144.282 318.998C144.282 313.476 139.804 308.998 134.282 308.998Z" fill="#303030"/>
<path d="M178.008 372.996H37.009C31.486 372.996 27.009 377.474 27.009 382.996C27.009 388.518 31.486 392.996 37.009 392.996H178.008C183.531 392.996 188.008 388.518 188.008 382.996C188.008 377.474 183.531 372.996 178.008 372.996Z" fill="#303030"/>
</g>
<defs>
<clipPath id="clip0_1_2">
<rect width="512" height="512" fill="white"/>
</clipPath>
</defs>
</svg>
